<svg xmlns="http://www.w3.org/2000/svg" viewBox="0 0 900 300" width="100%">
    <defs>
      <linearGradient id="bg" x1="0%" y1="0%" x2="100%" y2="100%">
        <stop offset="0%" stop-color="#F5F1EA"/>
        <stop offset="50%" stop-color="#F0EBE2"/>
        <stop offset="100%" stop-color="#EBE5D9"/>
      </linearGradient>
      <linearGradient id="textGrad" x1="0%" y1="0%" x2="100%" y2="0%">
        <stop offset="0%" stop-color="#1a1615"/>
        <stop offset="100%" stop-color="#4a4540"/>
      </linearGradient>
      <linearGradient id="tagBg" x1="0%" y1="0%" x2="0%" y2="100%">
        <stop offset="0%" stop-color="#E9E2D6"/>
        <stop offset="100%" stop-color="#DDD4C6"/>
      </linearGradient>
    </defs>

    <rect width="900" height="300" fill="url(#bg)" rx="16" stroke="#C9BFAE" stroke-width="1"/>
    <rect x="4" y="4" width="892" height="292" rx="14" fill="none" stroke="#FFFFFF" stroke-width="1" opacity="0.5"/>

    <!-- Logo -->
    <g transform="translate(30, 40)">
      <svg xmlns="http://www.w3.org/2000/svg" width="200" height="200" preserveAspectRatio="none" style="display: block;" version="1.1" viewBox="0 0 2000 2000"><path fill="rgb(209,145,112)" d="M1025.63 674.049c33.95-1.481 79.95-.116 114.68-.11l227.23.062c29.41.142 58.82.034 88.22-.324 10.69-.173 22.25.375 32.61-.524l-1.3 3.155c-4.77 11.786-14.73 27.248-21.35 38.757l-46.07 79.103-45.47 77.964c-6.25 10.673-17.33 30.908-24.3 40.001-21.93 2.428-48.9-.883-71.93 1.663-1.22-15.783-.12-45.27 0-61.912-12.39-5.233-27.24-12.994-39.47-18.99a8323 8323 0 0 1-80.34-40.099c-10.54 3.716-29.19 15.158-39.45 20.466-25.95 13.433-51.79 28.743-78.04 41.478-1.16 10.505-.86 27.423-.86 38.048l.05 60.301-.03 202.022c-.01 16.01 2.09 74.29-2.69 83.42-30.8 58.83-69.455 125.97-99.566 184.31 3.026 7.59 24.638 43.99 29.962 52.62 14.326 23.24 28.027 50 42.254 72.58-6.71 10.69-11.079 22.61-19.046 35.4l-1.859-.39c-9.924-18.18-21.203-36.63-31.581-54.66a8998 8998 0 0 0-54.369-95.06c-19.299 1.67-53.449.6-73.937.59l-141.781-.01c-25.317 0-57.123-.87-81.888.71 7.877-18.26 41.646-78.26 53.648-93.5 21.046-1.19 53.479-.15 75.245-.1l137.418.07c12.314-.01 58.708.99 67.035-.81 3.116-4.29 5.503-9 7.983-13.67 16.187-30.5 34.563-59.79 50.922-90.2l-98.585-179.41c-14.158-25.75-30.417-58.349-45.5-82.818 4.354-7.123 8.991-16.574 13.191-24.068a5913 5913 0 0 0 30.735-54.435c29.892-52.883 61.651-106.103 91.676-159.005 9.145-16.113 26.713-50.022 36.553-62.625"></path><path fill="rgb(238,186,163)" d="M552.822 627.091c1.337.924 2.085 1.393 2.946 2.904 21.814 38.268 44.366 76.216 66.715 114.173 3.655 6.208 17.929 28.963 19.652 33.693 53.779 86.801 105.926 180.668 158.181 269.079l72.887 124.87c8.283 14.47 24.578 40.61 30.648 54.36l-131.995.23c-21.638.04-51.273.88-72.244-.69-30.018-50.46-66.05-114.57-98.238-162.34l-110.214-189.236c-11.805-20.68-29.649-47.907-39.366-68.639 3.909-11.819 94.516-172.767 101.028-178.404"></path><path fill="rgb(209,145,112)" d="m1009.77 1548.04.41-.68c6.18-10.41 12.81-26.87 18.88-38.25l90.38-166.26c11.81-21.5 23.82-42.89 36.03-64.16 6.3-11.1 12.1-22.87 19.12-33.5 1.68-2.54 4.74-7.57 7.7-8.56 2.63-.87 230.31-.96 242.51.37 15.57 26.32 30.88 52.79 45.91 79.41 4.35 7.83 12.67 20.99 15.61 28.64-9.08 19.04-36.7 67.58-48.87 84.11-18.27 1.75-60.43.82-80.94.47-37.29-.62-81.97 1.54-118.26-.41-24.9 55.52-60.3 110.09-88.1 164.49-2.76 5.42-11.23 5.46-16.67 4.98-41.5-3.65-97.04 4.46-136.544-.77-2.655-4.97-5.346-9.93-8.071-14.87l1.859.39c7.967-12.79 12.336-24.71 19.046-35.4"></path><path fill="rgb(238,186,163)" d="M873.115 380.723c54.251-1.914 116.406-.839 171.205-.537 2.4 1.995 4.84 4.442 6.43 7.153 20.6 35.053 40.09 70.77 60.61 105.876 4.69 8.033 7.73 12.88 11.07 21.693 23.05 1.039 50.41.447 73.78.446l132.61-.1c20.48-.008 41.23-.105 61.72.05 3.58.027 12.05 1.132 14.89 3.035.9.599 4.8 5.996 5.32 7.068 5.25 11.017 70.54 122.457 70.91 126.144-4.86 3.345-120.35-.743-138.03.702-24.17-.895-60.25-.757-84.4-.126-16.83-.763-36.97-.331-54.03-.441-37.78-.395-75.57-.582-113.36-.561-19.61-.089-45.36.462-64.16-1.03-9.02-11.518-23.24-38.763-31.307-52.613l-25.684-44.638c-7.371-12.593-16.215-26.713-22.189-39.819-2.007-1.697-70.861-122.86-75.385-132.302"></path><path fill="rgb(209,145,112)" d="M729.695 626.24c25.467-49.609 59.732-106.5 88.197-155.449l31.922-55.225c4.805-8.353 15.939-30.668 23.301-34.843 4.524 9.442 73.378 130.605 75.385 132.302-14.481 26.138-32.093 55.002-47.388 80.752l-68.398 115.286c-7.31 12.252-33.381 59.306-40.233 66.582-20.095 2.925-145.096-1.155-150.346 2.216-1.723-4.73-15.997-27.485-19.652-33.693-22.349-37.957-44.901-75.905-66.715-114.173-.861-1.511-1.609-1.98-2.946-2.904 4.077-2.201 160.557-1.091 176.873-.851m-128.321 437.13c32.188 47.77 68.22 111.88 98.238 162.34-2.626 9.51-103.117 181.56-109.846 188.62-3.437-7.07-8.069-13.52-11.902-20.35-26.726-47.67-57.512-94.9-82.907-143.18 4.575-14.77 29.158-55 37.901-70.25 22.398-39.07 45.114-78.72 68.516-117.18m987.496-200.984c19.14.167 35.73 5.276 46.69 22.294 8.57 13.321 12.34 28.99 8.69 44.657a57.43 57.43 0 0 1-26.96 36.116c-28.7 17.016-61.6 2.685-76.72-25.125-11.38-.515-95.39-1.16-101.34 2.976-16.36 11.378-46.46 45.551-63.06 61.776-21.13 20.65-26.98 15.88-56.09 16.27-11.01.03-22.83-.04-33.99-.05h-138.84c-30.27-.17-60.55.05-90.81.67-.02-11.95.5-24.544.83-36.552 34.12 1.311 71.39.649 105.79.647l175.48-.111c22.23-13.639 43.12-41.689 61.63-60.412 7.2-7.287 15-15.828 24.71-19.633 15.81-6.197 90.26-3.525 112.49-3.623 11.47-27.741 20.9-36.218 51.5-39.9m4.64 79.82a25.1 25.1 0 0 0 22-19.64 25.09 25.09 0 0 0-11.87-27.001 25.1 25.1 0 0 0-14.83-3.328c-13.87 1.209-24.11 13.484-22.81 27.349 1.31 13.865 13.65 24.017 27.51 22.62"></path><path fill="rgb(209,145,112)" d="M1615.79 992.429c65 .28 75.03 86.761 18.43 106.981-27.36 9.78-60.59-6.7-69.16-35.32-49.71 2.74-103.67-.98-153.75.93-16.19.62-25.28 18.15-41.99 18.85-23.34.98-47.61.37-71.02.4l-150.05.03c-11.72-.02-82.55.93-88.99-.85-3.32-5.14-2.67-27.18-2.84-34.89 65.53.4 131.05.46 196.58.18l69.34.08c11.09-.02 22.34.05 33.43-.25 15.1.15 27.19-19.9 41.39-20.09 55.79-.75 112.19.98 167.95-.51 9.4-23.11 25.93-33.877 50.68-35.541m-17.22 38.081a24.95 24.95 0 0 0-5.93 20.55 24.88 24.88 0 0 0 12.19 17.57 24.9 24.9 0 0 0 18.63 2.5c11.17-2.89 18.89-13.09 18.64-24.63-.24-11.39-8.18-21.17-19.28-23.73a24.92 24.92 0 0 0-24.25 7.74m-540.91 80.9c8.54 1.2 23.04.7 32.2.67l50.28-.05 178.64-.01c22.15-.03 51.28-2.18 72.92 3.06 19.49 4.72 39.55 38.13 57.13 43.06 18.24 5.12 53.84 2.69 73.3 1.98 7.45-11.7 12.23-23.82 25.68-30.56 46.42-23.24 93.28 17.09 78.32 67.21-.07.28-.14.56-.21.85-13.69 37.25-63.63 48.99-90.45 18.29-5.96-6.81-8.4-11.81-12.31-19.13-20.29 1.33-66.95 2.47-86.74-1.56-17.94-3.64-48.2-45.55-65.69-46.56-19.93-1.15-45.67-.62-66.05-.6l-189.21-.21c-8.17-.01-52.74 2-56.72-.62-3.42-6.46-1.63-27.82-1.09-35.82m502.62 46.78c-9.44 6.65-13.05 18.92-8.72 29.63 4.34 10.7 15.48 17 26.88 15.2a24.83 24.83 0 0 0 15.9-39.56 24.83 24.83 0 0 0-24.31-9.38c-3.51.66-6.83 2.06-9.75 4.11"></path><path fill="rgb(238,222,207)" fill-opacity=".008" d="M1259.23 652.127c24.15-.631 60.23-.769 84.4.126-5.48 1.924-122.26 2.147-133.5 1.091 13.1-1.252 38.13 1.688 49.1-1.217"></path><g id="_ci60r4wf" pointer-events="none" style="mix-blend-mode:multiply"><rect width="100%" height="100%" fill="url(#_diedph97)"></rect></g></svg>
    </g>

    <text x="220" y="128" font-family="ui-sans-serif, system-ui, -apple-system, sans-serif" font-size="64" font-weight="800" fill="url(#textGrad)" letter-spacing="-2">Qwen Gate</text>
    <text x="222" y="168" font-family="ui-sans-serif, system-ui, -apple-system, sans-serif" font-size="18" fill="#8a7f6f" letter-spacing="1">OPENAI-COMPATIBLE API GATEWAY FOR QWEN MODELS</text>
    <line x1="222" y1="185" x2="580" y2="185" stroke="#D49A82" stroke-width="1" opacity="0.4"/>

    <g font-family="ui-sans-serif, system-ui, sans-serif" font-size="11" fill="#1a1615">
      <rect x="222" y="200" width="80" height="24" rx="6" fill="url(#tagBg)" stroke="#C9BFAE" stroke-width="0.5"/>
      <text x="262" y="216" text-anchor="middle" font-weight="500" fill="#8a7f6f">Playwright</text>
      <rect x="312" y="200" width="75" height="24" rx="6" fill="url(#tagBg)" stroke="#C9BFAE" stroke-width="0.5"/>
      <text x="349" y="216" text-anchor="middle" font-weight="500" fill="#8a7f6f">Hono</text>
      <rect x="397" y="200" width="85" height="24" rx="6" fill="url(#tagBg)" stroke="#C9BFAE" stroke-width="0.5"/>
      <text x="439" y="216" text-anchor="middle" font-weight="500" fill="#8a7f6f">TypeScript</text>
      <rect x="492" y="200" width="60" height="24" rx="6" fill="url(#tagBg)" stroke="#C9BFAE" stroke-width="0.5"/>
      <text x="522" y="216" text-anchor="middle" font-weight="500" fill="#8a7f6f">SSE</text>
    </g>

    <circle cx="780" cy="60" r="2" fill="#D49A82" opacity="0.4"/>
    <circle cx="820" cy="90" r="1.5" fill="#C2866E" opacity="0.3"/>
    <circle cx="760" cy="130" r="2.5" fill="#EAB8A6" opacity="0.3"/>
    <circle cx="840" cy="160" r="1.5" fill="#D49A82" opacity="0.4"/>
    <circle cx="800" cy="200" r="2" fill="#C2866E" opacity="0.3"/>
    <circle cx="850" cy="230" r="1.5" fill="#EAB8A6" opacity="0.2"/>

    <path d="M 20 20 L 20 40" stroke="#D49A82" stroke-width="1" opacity="0.3"/>
    <path d="M 20 20 L 40 20" stroke="#D49A82" stroke-width="1" opacity="0.3"/>
    <path d="M 880 280 L 880 260" stroke="#C2866E" stroke-width="1" opacity="0.3"/>
    <path d="M 880 280 L 860 280" stroke="#C2866E" stroke-width="1" opacity="0.3"/>
  </svg>
